<?xml version="1.0" encoding="utf-8"?>
<!-- Generator: Adobe Illustrator 26.2.1, SVG Export Plug-In . SVG Version: 6.00 Build 0)  -->
<svg version="1.1" id="Layer_1" xmlns="http://www.w3.org/2000/svg" xmlns:xlink="http://www.w3.org/1999/xlink" x="0px" y="0px"
	 viewBox="0 0 474 100" enable-background="new 0 0 474 100" xml:space="preserve">
<g>
	<g>
		<path fill="#606061" d="M98,50L83,23H28.8c-3.2,0-5.8,2.6-5.8,5.8v42.4c0,3.2,2.6,5.8,5.8,5.8H83L98,50z"/>
		<path fill="#BA1F40" d="M96.5,25.8c-1.1-1.7-3-2.8-5-2.8H87l15.2,27L87,77h4.5c2.1,0,4-1.1,5-2.8L110,50L96.5,25.8z"/>
	</g>
	<g>
		<rect x="55" y="38" fill="#FFFFFF" width="4" height="24"/>
		<polygon fill="#FFFFFF" points="47,38 47,55.6 36,38 32,38 32,62 36,62 36,44.4 47,62 51,62 51,38 		"/>
		<polygon fill="#FFFFFF" points="78,38 78,48 67,48 67,38 63,38 63,62 67,62 67,52 78,52 78,62 82,62 82,38 		"/>
	</g>
</g>
<g>
	<g>
		<path fill="#BB0E3D" d="M130.8,23h2.5v11.2h-2.5l-5.3-7v7H123V23h2.3l5.5,7.2V23z"/>
		<path fill="#BB0E3D" d="M144.1,34.2l-1-2.4h-4.7l-1,2.4h-2.7l4.8-11.2h2.4l4.8,11.2H144.1z M140.7,26.3l-1.4,3.2h2.8L140.7,26.3z"
			/>
		<path fill="#BB0E3D" d="M151.9,25.2v9h-2.5v-9h-3.2V23h8.8v2.2H151.9z"/>
		<path fill="#BB0E3D" d="M156.9,23h2.5v11.2h-2.5V23z"/>
		<path fill="#BB0E3D" d="M171.6,32.6c-1.1,1.1-2.5,1.7-4.2,1.7s-3-0.6-4.2-1.7c-1.1-1.1-1.7-2.5-1.7-4.1c0-1.6,0.6-3,1.7-4.1
			c1.1-1.1,2.5-1.7,4.2-1.7s3,0.6,4.2,1.7c1.1,1.1,1.7,2.5,1.7,4.1C173.3,30.2,172.7,31.5,171.6,32.6z M170.7,28.5
			c0-1-0.3-1.8-1-2.6c-0.6-0.7-1.4-1.1-2.4-1.1s-1.7,0.4-2.4,1.1c-0.6,0.7-1,1.6-1,2.6c0,1,0.3,1.8,1,2.5c0.6,0.7,1.4,1,2.4,1
			s1.7-0.3,2.4-1C170.4,30.4,170.7,29.5,170.7,28.5z"/>
		<path fill="#BB0E3D" d="M183.2,23h2.5v11.2h-2.5l-5.3-7v7h-2.5V23h2.3l5.5,7.2V23z"/>
		<path fill="#BB0E3D" d="M196.4,34.2l-1-2.4h-4.7l-1,2.4H187l4.8-11.2h2.4l4.8,11.2H196.4z M193.1,26.3l-1.4,3.2h2.8L193.1,26.3z"
			/>
		<path fill="#BB0E3D" d="M200.4,34.2V23h2.5v9h4.8v2.2H200.4z"/>
		<path fill="#BB0E3D" d="M218.8,32c1.2,0,2.2-0.5,3-1.5l1.6,1.6c-1.3,1.4-2.8,2.1-4.5,2.1s-3.1-0.5-4.3-1.6
			c-1.1-1.1-1.7-2.5-1.7-4.1c0-1.7,0.6-3,1.7-4.2c1.1-1.1,2.5-1.7,4.2-1.7c1.8,0,3.4,0.7,4.6,2.1l-1.6,1.8c-0.8-1-1.8-1.5-2.9-1.5
			c-0.9,0-1.7,0.3-2.4,0.9c-0.7,0.6-1,1.4-1,2.5s0.3,1.9,0.9,2.5C217.2,31.7,217.9,32,218.8,32z"/>
		<path fill="#BB0E3D" d="M233.3,34.2l-1-2.4h-4.7l-1,2.4h-2.7l4.8-11.2h2.4l4.8,11.2H233.3z M229.9,26.3l-1.4,3.2h2.8L229.9,26.3z"
			/>
		<path fill="#BB0E3D" d="M245.1,23h2.5v11.2h-2.5l-5.3-7v7h-2.5V23h2.3l5.5,7.2V23z"/>
		<path fill="#BB0E3D" d="M255.5,32c1.2,0,2.2-0.5,3-1.5l1.6,1.6c-1.3,1.4-2.8,2.1-4.5,2.1s-3.1-0.5-4.3-1.6
			c-1.1-1.1-1.7-2.5-1.7-4.1c0-1.7,0.6-3,1.7-4.2c1.1-1.1,2.5-1.7,4.2-1.7c1.8,0,3.4,0.7,4.6,2.1l-1.6,1.8c-0.8-1-1.8-1.5-2.9-1.5
			c-0.9,0-1.7,0.3-2.4,0.9c-0.7,0.6-1,1.4-1,2.5s0.3,1.9,0.9,2.5C253.8,31.7,254.6,32,255.5,32z"/>
		<path fill="#BB0E3D" d="M270.1,23v2.2h-5.6v2.3h5v2.1h-5V32h5.7v2.2H262V23H270.1z"/>
		<path fill="#BB0E3D" d="M281.6,26.7c0,1.8-0.7,2.9-2.1,3.5l2.8,4h-3.1l-2.5-3.6H275v3.6h-2.5V23h4.2c1.7,0,3,0.3,3.7,0.9
			S281.6,25.4,281.6,26.7z M278.6,28c0.3-0.3,0.5-0.7,0.5-1.3s-0.2-1-0.5-1.2s-0.9-0.3-1.7-0.3H275v3.3h1.8
			C277.7,28.5,278.2,28.3,278.6,28z"/>
		<path fill="#BB0E3D" d="M288.4,23h2.5v11.2h-2.5V23z"/>
		<path fill="#BB0E3D" d="M301.4,23h2.5v11.2h-2.5l-5.3-7v7h-2.5V23h2.3l5.5,7.2V23z"/>
		<path fill="#BB0E3D" d="M309.3,25.2c-0.2,0.2-0.4,0.5-0.4,0.8s0.1,0.6,0.4,0.8c0.3,0.2,1,0.4,2,0.7s1.9,0.7,2.5,1.2
			c0.6,0.5,0.9,1.3,0.9,2.3c0,1-0.4,1.8-1.1,2.4s-1.7,0.9-3,0.9c-1.8,0-3.4-0.7-4.8-2l1.5-1.8c1.2,1.1,2.3,1.6,3.3,1.6
			c0.5,0,0.8-0.1,1.1-0.3c0.3-0.2,0.4-0.5,0.4-0.8s-0.1-0.6-0.4-0.8s-0.8-0.4-1.6-0.6c-1.3-0.3-2.3-0.7-2.9-1.2s-0.9-1.3-0.9-2.3
			s0.4-1.9,1.1-2.5c0.8-0.6,1.7-0.9,2.9-0.9c0.7,0,1.5,0.1,2.2,0.4c0.7,0.3,1.4,0.6,2,1.1l-1.3,1.8c-1-0.7-2-1.1-3-1.1
			C309.9,24.9,309.5,25,309.3,25.2z"/>
		<path fill="#BB0E3D" d="M321.5,25.2v9H319v-9h-3.2V23h8.8v2.2H321.5z"/>
		<path fill="#BB0E3D" d="M326.5,23h2.5v11.2h-2.5V23z"/>
		<path fill="#BB0E3D" d="M336.5,25.2v9H334v-9h-3.2V23h8.8v2.2H336.5z"/>
		<path fill="#BB0E3D" d="M344.4,31.3c0.4,0.5,1,0.8,1.7,0.8s1.3-0.3,1.7-0.8c0.4-0.5,0.6-1.2,0.6-2.1V23h2.5v6.3
			c0,1.6-0.4,2.9-1.3,3.7c-0.9,0.9-2,1.3-3.4,1.3c-1.4,0-2.5-0.4-3.4-1.3c-0.9-0.9-1.4-2.1-1.4-3.7V23h2.5v6.2
			C343.8,30.1,344,30.8,344.4,31.3z"/>
		<path fill="#BB0E3D" d="M358.2,25.2v9h-2.5v-9h-3.2V23h8.8v2.2H358.2z"/>
		<path fill="#BB0E3D" d="M371.3,23v2.2h-5.6v2.3h5v2.1h-5V32h5.7v2.2h-8.2V23H371.3z"/>
	</g>
</g>
<g>
	<path fill="#606060" d="M129.3,53.6c1.5,0,2.8-0.6,3.8-1.8l2,2.1c-1.6,1.8-3.5,2.7-5.6,2.7s-3.9-0.7-5.3-2s-2.1-3.1-2.1-5.1
		c0-2.1,0.7-3.8,2.1-5.2c1.4-1.4,3.2-2.1,5.2-2.1c2.3,0,4.2,0.9,5.8,2.6l-1.9,2.2c-1-1.2-2.2-1.8-3.7-1.8c-1.2,0-2.2,0.4-3,1.1
		c-0.8,0.8-1.2,1.8-1.2,3.1c0,1.3,0.4,2.3,1.2,3.1C127.2,53.2,128.1,53.6,129.3,53.6z"/>
	<path fill="#606060" d="M140.2,50.6v5.8h-3V41.5h3v5.3c0.9-0.9,1.9-1.4,3-1.4s2.1,0.4,2.9,1.2c0.8,0.8,1.2,1.9,1.2,3.2v6.5h-3v-5.9
		c0-1.7-0.6-2.5-1.8-2.5c-0.6,0-1.1,0.2-1.6,0.6C140.4,49.1,140.2,49.7,140.2,50.6z"/>
	<path fill="#606060" d="M150.2,44.2c-0.3-0.3-0.5-0.8-0.5-1.2s0.2-0.9,0.5-1.2c0.3-0.3,0.8-0.5,1.2-0.5s0.9,0.2,1.2,0.5
		c0.3,0.3,0.5,0.8,0.5,1.2s-0.2,0.9-0.5,1.2c-0.3,0.3-0.8,0.5-1.2,0.5S150.6,44.6,150.2,44.2z M153,56.4h-3V45.6h3V56.4z"/>
	<path fill="#606060" d="M158.8,56.4h-3V41.5h3V56.4z"/>
	<path fill="#606060" d="M166,56.5c-1.3,0-2.4-0.5-3.4-1.6s-1.5-2.4-1.5-4s0.5-2.9,1.5-3.9c1-1,2.1-1.5,3.4-1.5s2.4,0.5,3.2,1.4
		v-5.3h3v14.8h-3v-1.4C168.3,56,167.2,56.5,166,56.5z M164.1,51c0,0.9,0.3,1.6,0.8,2.1c0.5,0.6,1.1,0.8,1.8,0.8
		c0.7,0,1.3-0.3,1.8-0.8c0.5-0.6,0.7-1.3,0.7-2.1c0-0.9-0.2-1.6-0.7-2.2c-0.5-0.6-1.1-0.9-1.8-0.9s-1.3,0.3-1.8,0.9
		C164.3,49.4,164.1,50.1,164.1,51z"/>
	<path fill="#606060" d="M178,50.6v5.8h-3V41.5h3v5.3c0.9-0.9,1.9-1.4,3-1.4s2.1,0.4,2.9,1.2c0.8,0.8,1.2,1.9,1.2,3.2v6.5h-3v-5.9
		c0-1.7-0.6-2.5-1.8-2.5c-0.6,0-1.1,0.2-1.6,0.6C178.2,49.1,178,49.7,178,50.6z"/>
	<path fill="#606060" d="M198.5,51c0,1.6-0.5,2.9-1.6,3.9c-1.1,1.1-2.4,1.6-4.1,1.6c-1.6,0-3-0.5-4.1-1.6c-1.1-1.1-1.6-2.4-1.6-3.9
		c0-1.6,0.5-2.9,1.6-4c1.1-1.1,2.4-1.6,4.1-1.6c1.6,0,3,0.5,4.1,1.6C198,48.1,198.5,49.4,198.5,51z M190.1,51c0,0.9,0.2,1.6,0.8,2.1
		c0.5,0.6,1.1,0.8,1.9,0.8c0.8,0,1.4-0.3,1.9-0.8c0.5-0.6,0.8-1.3,0.8-2.1s-0.2-1.6-0.8-2.2s-1.1-0.8-1.9-0.8
		c-0.8,0-1.4,0.3-1.9,0.8S190.1,50.1,190.1,51z"/>
	<path fill="#606060" d="M211.5,51c0,1.6-0.5,2.9-1.6,3.9c-1.1,1.1-2.4,1.6-4.1,1.6c-1.6,0-3-0.5-4.1-1.6c-1.1-1.1-1.6-2.4-1.6-3.9
		c0-1.6,0.5-2.9,1.6-4c1.1-1.1,2.4-1.6,4.1-1.6c1.6,0,3,0.5,4.1,1.6C210.9,48.1,211.5,49.4,211.5,51z M203.1,51
		c0,0.9,0.2,1.6,0.8,2.1c0.5,0.6,1.1,0.8,1.9,0.8c0.8,0,1.4-0.3,1.9-0.8c0.5-0.6,0.8-1.3,0.8-2.1s-0.2-1.6-0.8-2.2s-1.1-0.8-1.9-0.8
		c-0.8,0-1.4,0.3-1.9,0.8S203.1,50.1,203.1,51z"/>
	<path fill="#606060" d="M218,56.5c-1.3,0-2.4-0.5-3.4-1.6s-1.5-2.4-1.5-4s0.5-2.9,1.5-3.9c1-1,2.1-1.5,3.4-1.5s2.4,0.5,3.2,1.4
		v-5.3h3v14.8h-3v-1.4C220.3,56,219.3,56.5,218,56.5z M216.1,51c0,0.9,0.3,1.6,0.8,2.1c0.5,0.6,1.1,0.8,1.8,0.8
		c0.7,0,1.3-0.3,1.8-0.8c0.5-0.6,0.7-1.3,0.7-2.1c0-0.9-0.2-1.6-0.7-2.2c-0.5-0.6-1.1-0.9-1.8-0.9s-1.3,0.3-1.8,0.9
		C216.4,49.4,216.1,50.1,216.1,51z"/>
	<path fill="#606060" d="M239,53.6c1.5,0,2.8-0.6,3.8-1.8l2,2.1c-1.6,1.8-3.5,2.7-5.6,2.7s-3.9-0.7-5.3-2s-2.1-3.1-2.1-5.1
		c0-2.1,0.7-3.8,2.1-5.2c1.4-1.4,3.2-2.1,5.2-2.1c2.3,0,4.2,0.9,5.8,2.6l-1.9,2.2c-1-1.2-2.2-1.8-3.7-1.8c-1.2,0-2.2,0.4-3,1.1
		c-0.8,0.8-1.2,1.8-1.2,3.1c0,1.3,0.4,2.3,1.2,3.1C237,53.2,237.9,53.6,239,53.6z"/>
	<path fill="#606060" d="M256,56.4h-2.8v-1.3c-0.8,1-1.7,1.5-2.9,1.5s-2.1-0.3-2.9-1s-1.2-1.5-1.2-2.6c0-1.1,0.4-1.9,1.2-2.5
		c0.8-0.5,1.9-0.8,3.3-0.8h2.2v-0.1c0-1.1-0.6-1.7-1.8-1.7c-0.5,0-1.1,0.1-1.7,0.3c-0.6,0.2-1.1,0.5-1.5,0.8l-1.3-1.9
		c1.4-1,3-1.5,4.8-1.5c1.3,0,2.4,0.3,3.2,1c0.8,0.7,1.2,1.7,1.2,3.1V56.4z M252.9,52.3v-0.5h-1.9c-1.2,0-1.8,0.4-1.8,1.1
		c0,0.4,0.1,0.7,0.4,0.9c0.3,0.2,0.7,0.3,1.2,0.3s1-0.2,1.4-0.5C252.7,53.2,252.9,52.8,252.9,52.3z"/>
	<path fill="#606060" d="M261.7,50.4v6h-3V45.6h3v1.2c0.9-0.9,1.9-1.4,3.1-1.4c1.1,0,2.1,0.4,2.8,1.2c0.8,0.8,1.2,1.9,1.2,3.2v6.5
		h-3v-6.1c0-1.7-0.6-2.5-1.8-2.5c-0.6,0-1.1,0.2-1.6,0.6C261.9,48.9,261.7,49.5,261.7,50.4z"/>
	<path fill="#606060" d="M276.6,53.9c1,0,1.9-0.5,2.7-1.5l1.8,2c-1.4,1.4-2.9,2.2-4.5,2.2s-3-0.5-4.1-1.5c-1.1-1-1.7-2.4-1.7-4
		c0-1.6,0.6-3,1.7-4c1.1-1,2.5-1.5,4-1.5c0.8,0,1.6,0.2,2.3,0.5c0.8,0.3,1.5,0.8,2.1,1.4l-1.6,2c-0.3-0.4-0.8-0.7-1.3-1
		c-0.5-0.2-1-0.3-1.5-0.3c-0.8,0-1.5,0.3-2,0.8s-0.8,1.2-0.8,2.1c0,0.9,0.3,1.6,0.8,2.1S275.9,53.9,276.6,53.9z"/>
	<path fill="#606060" d="M292.4,54.8c-1.2,1.1-2.6,1.7-4.3,1.7c-1.6,0-3-0.5-4-1.5s-1.6-2.4-1.6-4.1c0-1.7,0.5-3,1.6-4
		c1.1-1,2.4-1.5,3.8-1.5c1.5,0,2.7,0.4,3.8,1.3c1,0.9,1.5,2.1,1.5,3.7V52h-7.8c0.1,0.6,0.4,1.1,0.9,1.4c0.5,0.4,1.1,0.6,1.8,0.6
		c1.1,0,1.9-0.4,2.6-1.1L292.4,54.8z M289.6,48.4c-0.4-0.3-0.9-0.5-1.5-0.5c-0.6,0-1.1,0.2-1.6,0.5s-0.8,0.8-0.9,1.5h4.7
		C290.2,49.3,290,48.8,289.6,48.4z"/>
	<path fill="#606060" d="M301.1,48.2c-0.9,0-1.6,0.3-2,1c-0.4,0.6-0.7,1.5-0.7,2.5v4.7h-3V45.6h3V47c0.4-0.4,0.9-0.8,1.5-1.1
		s1.2-0.5,1.8-0.5l0,2.8H301.1z"/>
	<path fill="#606060" d="M320,44.2c1.3,1.2,2,2.9,2,5.1c0,2.2-0.7,3.9-2,5.2c-1.3,1.3-3.3,1.9-6,1.9h-4.8v-14h4.9
		C316.7,42.4,318.6,43,320,44.2z M317.7,52.5c0.8-0.7,1.1-1.8,1.1-3.1c0-1.4-0.4-2.4-1.1-3.2c-0.8-0.7-1.9-1.1-3.5-1.1h-1.7v8.5h2
		C315.8,53.6,316.9,53.2,317.7,52.5z"/>
	<path fill="#606060" d="M333.4,56.4h-2.8v-1.3c-0.8,1-1.7,1.5-2.9,1.5s-2.1-0.3-2.9-1s-1.2-1.5-1.2-2.6c0-1.1,0.4-1.9,1.2-2.5
		c0.8-0.5,1.9-0.8,3.3-0.8h2.2v-0.1c0-1.1-0.6-1.7-1.8-1.7c-0.5,0-1.1,0.1-1.7,0.3c-0.6,0.2-1.1,0.5-1.5,0.8l-1.3-1.9
		c1.4-1,3-1.5,4.8-1.5c1.3,0,2.4,0.3,3.2,1c0.8,0.7,1.2,1.7,1.2,3.1V56.4z M330.3,52.3v-0.5h-1.9c-1.2,0-1.8,0.4-1.8,1.1
		c0,0.4,0.1,0.7,0.4,0.9c0.3,0.2,0.7,0.3,1.2,0.3s1-0.2,1.4-0.5C330.1,53.2,330.3,52.8,330.3,52.3z"/>
	<path fill="#606060" d="M339.6,47.8v4.8c0,0.4,0.1,0.7,0.3,1c0.2,0.2,0.5,0.3,0.8,0.3c0.6,0,1-0.3,1.4-0.8l1.1,2.1
		c-0.9,0.9-1.9,1.3-3,1.3s-1.9-0.3-2.6-1c-0.7-0.7-1.1-1.6-1.1-2.8v-5h-1.3v-2.2h1.3v-3.2h3v3.2h2.6v2.2H339.6z"/>
	<path fill="#606060" d="M353.9,56.4h-2.8v-1.3c-0.8,1-1.7,1.5-2.9,1.5s-2.1-0.3-2.9-1s-1.2-1.5-1.2-2.6c0-1.1,0.4-1.9,1.2-2.5
		c0.8-0.5,1.9-0.8,3.3-0.8h2.2v-0.1c0-1.1-0.6-1.7-1.8-1.7c-0.5,0-1.1,0.1-1.7,0.3c-0.6,0.2-1.1,0.5-1.5,0.8l-1.3-1.9
		c1.4-1,3-1.5,4.8-1.5c1.3,0,2.4,0.3,3.2,1c0.8,0.7,1.2,1.7,1.2,3.1V56.4z M350.9,52.3v-0.5H349c-1.2,0-1.8,0.4-1.8,1.1
		c0,0.4,0.1,0.7,0.4,0.9c0.3,0.2,0.7,0.3,1.2,0.3s1-0.2,1.4-0.5C350.7,53.2,350.9,52.8,350.9,52.3z"/>
	<path fill="#606060" d="M362.2,42.4h3.1v14h-3.1V42.4z"/>
	<path fill="#606060" d="M371.4,50.4v6h-3V45.6h3v1.2c0.9-0.9,1.9-1.4,3.1-1.4c1.1,0,2.1,0.4,2.8,1.2c0.8,0.8,1.2,1.9,1.2,3.2v6.5
		h-3v-6.1c0-1.7-0.6-2.5-1.8-2.5c-0.6,0-1.1,0.2-1.6,0.6C371.6,48.9,371.4,49.5,371.4,50.4z"/>
	<path fill="#606060" d="M381.4,44.2c-0.3-0.3-0.5-0.8-0.5-1.2s0.2-0.9,0.5-1.2c0.3-0.3,0.8-0.5,1.2-0.5s0.9,0.2,1.2,0.5
		c0.3,0.3,0.5,0.8,0.5,1.2s-0.2,0.9-0.5,1.2c-0.3,0.3-0.8,0.5-1.2,0.5S381.8,44.6,381.4,44.2z M384.2,56.4h-3V45.6h3V56.4z"/>
	<path fill="#606060" d="M390.6,47.8v4.8c0,0.4,0.1,0.7,0.3,1c0.2,0.2,0.5,0.3,0.8,0.3c0.6,0,1-0.3,1.4-0.8l1.1,2.1
		c-0.9,0.9-1.9,1.3-3,1.3s-1.9-0.3-2.6-1c-0.7-0.7-1.1-1.6-1.1-2.8v-5h-1.3v-2.2h1.3v-3.2h3v3.2h2.6v2.2H390.6z"/>
	<path fill="#606060" d="M396.1,44.2c-0.3-0.3-0.5-0.8-0.5-1.2s0.2-0.9,0.5-1.2c0.3-0.3,0.8-0.5,1.2-0.5s0.9,0.2,1.2,0.5
		c0.3,0.3,0.5,0.8,0.5,1.2s-0.2,0.9-0.5,1.2c-0.3,0.3-0.8,0.5-1.2,0.5S396.4,44.6,396.1,44.2z M398.8,56.4h-3V45.6h3V56.4z"/>
	<path fill="#606060" d="M410.8,56.4H408v-1.3c-0.8,1-1.7,1.5-2.9,1.5s-2.1-0.3-2.9-1s-1.2-1.5-1.2-2.6c0-1.1,0.4-1.9,1.2-2.5
		c0.8-0.5,1.9-0.8,3.3-0.8h2.2v-0.1c0-1.1-0.6-1.7-1.8-1.7c-0.5,0-1.1,0.1-1.7,0.3c-0.6,0.2-1.1,0.5-1.5,0.8l-1.3-1.9
		c1.4-1,3-1.5,4.8-1.5c1.3,0,2.4,0.3,3.2,1c0.8,0.7,1.2,1.7,1.2,3.1V56.4z M407.8,52.3v-0.5h-1.9c-1.2,0-1.8,0.4-1.8,1.1
		c0,0.4,0.1,0.7,0.4,0.9c0.3,0.2,0.7,0.3,1.2,0.3s1-0.2,1.4-0.5C407.6,53.2,407.8,52.8,407.8,52.3z"/>
	<path fill="#606060" d="M417,47.8v4.8c0,0.4,0.1,0.7,0.3,1c0.2,0.2,0.5,0.3,0.8,0.3c0.6,0,1-0.3,1.4-0.8l1.1,2.1
		c-0.9,0.9-1.9,1.3-3,1.3s-1.9-0.3-2.6-1c-0.7-0.7-1.1-1.6-1.1-2.8v-5h-1.3v-2.2h1.3v-3.2h3v3.2h2.6v2.2H417z"/>
	<path fill="#606060" d="M422.5,44.2c-0.3-0.3-0.5-0.8-0.5-1.2s0.2-0.9,0.5-1.2c0.3-0.3,0.8-0.5,1.2-0.5s0.9,0.2,1.2,0.5
		c0.3,0.3,0.5,0.8,0.5,1.2s-0.2,0.9-0.5,1.2c-0.3,0.3-0.8,0.5-1.2,0.5S422.8,44.6,422.5,44.2z M425.2,56.4h-3V45.6h3V56.4z"/>
	<path fill="#606060" d="M431,56.4l-4.3-10.8h3.1l2.7,6.8l2.7-6.8h3.1L434,56.4H431z"/>
	<path fill="#606060" d="M449.1,54.8c-1.2,1.1-2.6,1.7-4.3,1.7c-1.6,0-3-0.5-4-1.5s-1.6-2.4-1.6-4.1c0-1.7,0.5-3,1.6-4
		c1.1-1,2.4-1.5,3.8-1.5c1.5,0,2.7,0.4,3.8,1.3c1,0.9,1.5,2.1,1.5,3.7V52h-7.8c0.1,0.6,0.4,1.1,0.9,1.4c0.5,0.4,1.1,0.6,1.8,0.6
		c1.1,0,1.9-0.4,2.6-1.1L449.1,54.8z M446.2,48.4c-0.4-0.3-0.9-0.5-1.5-0.5c-0.6,0-1.1,0.2-1.6,0.5s-0.8,0.8-0.9,1.5h4.7
		C446.9,49.3,446.6,48.8,446.2,48.4z"/>
	<path fill="#606060" d="M135.4,68.6l-3.8,7.6h-1.9l-3.8-7.6v8.8h-3.1v-14h4.2l3.6,7.7l3.6-7.7h4.2v14h-3.1V68.6z"/>
	<path fill="#606060" d="M152.4,72c0,1.6-0.5,2.9-1.6,3.9c-1.1,1.1-2.4,1.6-4.1,1.6c-1.6,0-3-0.5-4.1-1.6c-1.1-1.1-1.6-2.4-1.6-3.9
		c0-1.6,0.5-2.9,1.6-4s2.4-1.6,4.1-1.6c1.6,0,3,0.5,4.1,1.6C151.9,69.1,152.4,70.4,152.4,72z M144,72c0,0.9,0.2,1.6,0.8,2.1
		c0.5,0.6,1.1,0.8,1.9,0.8c0.8,0,1.4-0.3,1.9-0.8c0.5-0.6,0.8-1.3,0.8-2.1s-0.2-1.6-0.8-2.2s-1.1-0.8-1.9-0.8
		c-0.8,0-1.4,0.3-1.9,0.8S144,71.1,144,72z"/>
	<path fill="#606060" d="M157.6,77.4h-3V62.5h3V77.4z"/>
	<path fill="#606060" d="M169.8,75.8c-1.2,1.1-2.6,1.7-4.3,1.7c-1.6,0-3-0.5-4-1.5s-1.6-2.4-1.6-4.1c0-1.7,0.5-3,1.6-4
		c1.1-1,2.4-1.5,3.8-1.5c1.5,0,2.7,0.4,3.8,1.3c1,0.9,1.5,2.1,1.5,3.7V73h-7.8c0.1,0.6,0.4,1.1,0.9,1.4c0.5,0.4,1.1,0.6,1.8,0.6
		c1.1,0,1.9-0.4,2.6-1.1L169.8,75.8z M166.9,69.4c-0.4-0.3-0.9-0.5-1.5-0.5c-0.6,0-1.1,0.2-1.6,0.5s-0.8,0.8-0.9,1.5h4.7
		C167.5,70.3,167.3,69.8,166.9,69.4z"/>
	<path fill="#606060" d="M178,74.9c1,0,1.9-0.5,2.7-1.5l1.8,2c-1.4,1.4-2.9,2.2-4.5,2.2s-3-0.5-4.1-1.5c-1.1-1-1.7-2.4-1.7-4
		c0-1.6,0.6-3,1.7-4c1.1-1,2.5-1.6,4-1.6c0.8,0,1.6,0.2,2.3,0.5c0.8,0.3,1.5,0.8,2.1,1.4l-1.6,2c-0.3-0.4-0.8-0.7-1.3-1
		s-1-0.3-1.5-0.3c-0.8,0-1.5,0.3-2,0.8c-0.6,0.5-0.8,1.2-0.8,2.1s0.3,1.6,0.8,2.1S177.2,74.9,178,74.9z"/>
	<path fill="#606060" d="M191.4,72.4v-5.8h3v10.8h-3v-1.4c-0.7,1.1-1.7,1.6-2.9,1.6c-1.2,0-2.2-0.4-3-1.1s-1.2-1.8-1.2-3.3v-6.5h3
		v5.9c0,1.7,0.6,2.5,1.8,2.5c0.6,0,1.1-0.2,1.6-0.7C191.2,73.9,191.4,73.2,191.4,72.4z"/>
	<path fill="#606060" d="M200.2,77.4h-3V62.5h3V77.4z"/>
	<path fill="#606060" d="M212.2,77.4h-2.8v-1.3c-0.8,1-1.7,1.5-2.9,1.5s-2.1-0.3-2.9-1s-1.2-1.5-1.2-2.6c0-1.1,0.4-1.9,1.2-2.5
		c0.8-0.5,1.9-0.8,3.3-0.8h2.2v-0.1c0-1.1-0.6-1.7-1.8-1.7c-0.5,0-1.1,0.1-1.7,0.3c-0.6,0.2-1.1,0.5-1.5,0.8l-1.3-1.9
		c1.4-1,3-1.5,4.8-1.5c1.3,0,2.4,0.3,3.2,1c0.8,0.7,1.2,1.7,1.2,3.1V77.4z M209.2,73.3v-0.5h-1.9c-1.2,0-1.8,0.4-1.8,1.1
		c0,0.4,0.1,0.7,0.4,0.9c0.3,0.2,0.7,0.3,1.2,0.3s1-0.2,1.4-0.5C209,74.2,209.2,73.8,209.2,73.3z"/>
	<path fill="#606060" d="M220.6,69.2c-0.9,0-1.6,0.3-2,1c-0.4,0.6-0.7,1.5-0.7,2.5v4.7h-3V66.6h3V68c0.4-0.4,0.9-0.8,1.5-1.1
		s1.2-0.5,1.8-0.5l0,2.8H220.6z"/>
	<path fill="#606060" d="M234.7,66.1v11.3h-3.1V66.1h-4v-2.7h11v2.7H234.7z"/>
	<path fill="#606060" d="M248.5,77.4h-2.8v-1.3c-0.8,1-1.7,1.5-2.9,1.5s-2.1-0.3-2.9-1s-1.2-1.5-1.2-2.6c0-1.1,0.4-1.9,1.2-2.5
		c0.8-0.5,1.9-0.8,3.3-0.8h2.2v-0.1c0-1.1-0.6-1.7-1.8-1.7c-0.5,0-1.1,0.1-1.7,0.3c-0.6,0.2-1.1,0.5-1.5,0.8l-1.3-1.9
		c1.4-1,3-1.5,4.8-1.5c1.3,0,2.4,0.3,3.2,1c0.8,0.7,1.2,1.7,1.2,3.1V77.4z M245.5,73.3v-0.5h-1.9c-1.2,0-1.8,0.4-1.8,1.1
		c0,0.4,0.1,0.7,0.4,0.9c0.3,0.2,0.7,0.3,1.2,0.3s1-0.2,1.4-0.5C245.3,74.2,245.5,73.8,245.5,73.3z"/>
	<path fill="#606060" d="M256.9,69.2c-0.9,0-1.6,0.3-2,1c-0.4,0.6-0.7,1.5-0.7,2.5v4.7h-3V66.6h3V68c0.4-0.4,0.9-0.8,1.5-1.1
		s1.2-0.5,1.8-0.5l0,2.8H256.9z"/>
	<path fill="#606060" d="M267.4,75.5c-0.9,1.1-2.1,1.6-3.5,1.6c-1.4,0-2.6-0.5-3.6-1.4s-1.5-2.2-1.5-3.8c0-1.6,0.5-2.9,1.5-3.9
		c1-1,2.1-1.5,3.4-1.5c1.3,0,2.3,0.5,3.2,1.6v-1.4h3V76c0,1-0.2,1.8-0.5,2.6c-0.3,0.7-0.8,1.3-1.3,1.8c-1.1,0.9-2.4,1.3-3.9,1.3
		c-0.8,0-1.6-0.1-2.5-0.4c-0.8-0.3-1.6-0.6-2.2-1.1l1.2-2.3c1,0.7,2,1.1,3.1,1.1c1.1,0,2-0.3,2.6-0.8
		C267.1,77.6,267.4,76.7,267.4,75.5z M267,71.7c0-0.9-0.2-1.5-0.7-2c-0.5-0.5-1.1-0.7-1.8-0.7s-1.3,0.2-1.8,0.7s-0.8,1.2-0.8,2
		c0,0.9,0.2,1.5,0.8,2.1s1.1,0.8,1.8,0.8c0.7,0,1.3-0.3,1.8-0.8C266.7,73.3,267,72.6,267,71.7z"/>
	<path fill="#606060" d="M282.1,75.8c-1.2,1.1-2.6,1.7-4.3,1.7c-1.6,0-3-0.5-4-1.5s-1.6-2.4-1.6-4.1c0-1.7,0.5-3,1.6-4
		c1.1-1,2.4-1.5,3.8-1.5c1.5,0,2.7,0.4,3.8,1.3c1,0.9,1.5,2.1,1.5,3.7V73h-7.8c0.1,0.6,0.4,1.1,0.9,1.4c0.5,0.4,1.1,0.6,1.8,0.6
		c1.1,0,1.9-0.4,2.6-1.1L282.1,75.8z M279.2,69.4c-0.4-0.3-0.9-0.5-1.5-0.5c-0.6,0-1.1,0.2-1.6,0.5s-0.8,0.8-0.9,1.5h4.7
		C279.9,70.3,279.6,69.8,279.2,69.4z"/>
	<path fill="#606060" d="M288.6,68.8v4.8c0,0.4,0.1,0.7,0.3,1c0.2,0.2,0.5,0.3,0.8,0.3c0.6,0,1-0.3,1.4-0.8l1.1,2.1
		c-0.9,0.9-1.9,1.3-3,1.3s-1.9-0.3-2.6-1c-0.7-0.7-1.1-1.6-1.1-2.8v-5h-1.3v-2.2h1.3v-3.2h3v3.2h2.6v2.2H288.6z"/>
	<path fill="#606060" d="M301.9,74c0,1.1-0.4,1.9-1.2,2.5c-0.8,0.6-1.8,1-3,1c-0.8,0-1.6-0.1-2.5-0.4c-0.9-0.3-1.6-0.7-2.3-1.3
		l1.3-1.9c1.1,0.9,2.3,1.3,3.6,1.3c0.4,0,0.7-0.1,0.9-0.2c0.2-0.2,0.3-0.4,0.3-0.6s-0.2-0.5-0.5-0.7c-0.3-0.2-0.8-0.4-1.4-0.6
		c-0.6-0.2-1-0.3-1.4-0.5c-0.3-0.1-0.7-0.3-1.1-0.6c-0.8-0.5-1.2-1.3-1.2-2.2c0-1,0.4-1.8,1.2-2.4s1.8-0.9,3.1-0.9s2.5,0.4,3.8,1.3
		l-1.1,2c-0.9-0.6-1.9-1-2.8-1s-1.4,0.3-1.4,0.8c0,0.3,0.1,0.5,0.4,0.7s0.8,0.3,1.5,0.6c0.7,0.2,1.2,0.4,1.5,0.5
		c0.3,0.1,0.6,0.3,1,0.5C301.6,72.2,301.9,72.9,301.9,74z"/>
	<path fill="#606060" d="M319.4,64.6c1,0.8,1.5,2.1,1.5,3.8s-0.5,3-1.5,3.8c-1,0.8-2.5,1.2-4.6,1.2h-1.9v3.9h-3.1v-14h4.9
		C316.9,63.4,318.5,63.8,319.4,64.6z M317.1,70.1c0.4-0.4,0.6-1,0.6-1.8c0-0.8-0.2-1.4-0.7-1.7c-0.5-0.3-1.2-0.5-2.3-0.5h-1.8v4.7
		h2.1C316.1,70.8,316.8,70.5,317.1,70.1z"/>
	<path fill="#606060" d="M326,77.4h-3V62.5h3V77.4z"/>
	<path fill="#606060" d="M338,77.4h-2.8v-1.3c-0.8,1-1.7,1.5-2.9,1.5s-2.1-0.3-2.9-1s-1.2-1.5-1.2-2.6c0-1.1,0.4-1.9,1.2-2.5
		c0.8-0.5,1.9-0.8,3.3-0.8h2.2v-0.1c0-1.1-0.6-1.7-1.8-1.7c-0.5,0-1.1,0.1-1.7,0.3c-0.6,0.2-1.1,0.5-1.5,0.8l-1.3-1.9
		c1.4-1,3-1.5,4.8-1.5c1.3,0,2.4,0.3,3.2,1c0.8,0.7,1.2,1.7,1.2,3.1V77.4z M335,73.3v-0.5h-1.9c-1.2,0-1.8,0.4-1.8,1.1
		c0,0.4,0.1,0.7,0.4,0.9c0.3,0.2,0.7,0.3,1.2,0.3s1-0.2,1.4-0.5C334.8,74.2,335,73.8,335,73.3z"/>
	<path fill="#606060" d="M344.2,68.8v4.8c0,0.4,0.1,0.7,0.3,1c0.2,0.2,0.5,0.3,0.8,0.3c0.6,0,1-0.3,1.4-0.8l1.1,2.1
		c-0.9,0.9-1.9,1.3-3,1.3s-1.9-0.3-2.6-1c-0.7-0.7-1.1-1.6-1.1-2.8v-5h-1.3v-2.2h1.3v-3.2h3v3.2h2.6v2.2H344.2z"/>
	<path fill="#606060" d="M353,66v0.7h2.6v2.2H353v8.5h-3v-8.5h-1.3v-2.2h1.3V66c0-1.2,0.4-2.1,1.1-2.8c0.7-0.7,1.6-1,2.7-1
		s2,0.4,2.9,1.2l-1.1,2c-0.4-0.5-0.9-0.8-1.5-0.8c-0.3,0-0.6,0.1-0.8,0.3C353.1,65.2,353,65.5,353,66z"/>
	<path fill="#606060" d="M368,72c0,1.6-0.5,2.9-1.6,3.9c-1.1,1.1-2.4,1.6-4.1,1.6c-1.6,0-3-0.5-4.1-1.6c-1.1-1.1-1.6-2.4-1.6-3.9
		c0-1.6,0.5-2.9,1.6-4s2.4-1.6,4.1-1.6c1.6,0,3,0.5,4.1,1.6C367.4,69.1,368,70.4,368,72z M359.6,72c0,0.9,0.2,1.6,0.8,2.1
		c0.5,0.6,1.1,0.8,1.9,0.8c0.8,0,1.4-0.3,1.9-0.8c0.5-0.6,0.8-1.3,0.8-2.1s-0.2-1.6-0.8-2.2s-1.1-0.8-1.9-0.8
		c-0.8,0-1.4,0.3-1.9,0.8S359.6,71.1,359.6,72z"/>
	<path fill="#606060" d="M375.9,69.2c-0.9,0-1.6,0.3-2,1c-0.4,0.6-0.7,1.5-0.7,2.5v4.7h-3V66.6h3V68c0.4-0.4,0.9-0.8,1.5-1.1
		s1.2-0.5,1.8-0.5l0,2.8H375.9z"/>
	<path fill="#606060" d="M388.3,71.6v5.8h-3v-5.9c0-0.9-0.1-1.5-0.4-1.9c-0.3-0.4-0.7-0.6-1.3-0.6s-1.1,0.2-1.5,0.7
		s-0.7,1.1-0.7,1.9v5.8h-3V66.6h3v1.2c0.8-0.9,1.8-1.4,2.8-1.4c0.7,0,1.3,0.2,1.9,0.6c0.6,0.4,1,0.9,1.2,1.5c0.4-0.7,1-1.2,1.7-1.5
		c0.7-0.4,1.4-0.5,2.1-0.5c1.3,0,2.3,0.4,3.1,1.1c0.8,0.8,1.2,1.8,1.2,3.3v6.5h-3v-5.9c0-1.7-0.6-2.5-1.8-2.5
		c-0.6,0-1.1,0.2-1.6,0.7S388.3,70.7,388.3,71.6z"/>
</g>
</svg>
