<?xml version="1.0" encoding="utf-8"?>
<!-- Generator: Adobe Illustrator 25.4.1, SVG Export Plug-In . SVG Version: 6.00 Build 0)  -->
<svg version="1.0" id="Layer_1" xmlns="http://www.w3.org/2000/svg" xmlns:xlink="http://www.w3.org/1999/xlink" x="0px" y="0px"
	 viewBox="0 0 472.866 100" enable-background="new 0 0 472.866 100" xml:space="preserve">
<g>
	<g>
		<path fill="#606061" d="M97.995,50l-15-27H28.764c-3.186,0-5.769,2.59-5.769,5.786v42.428c0,3.195,2.583,5.786,5.769,5.786h54.231
			L97.995,50z"/>
		<path fill="#BA1F40" d="M96.496,25.815C95.44,24.069,93.536,23,91.481,23h-4.485l15.201,27L86.995,77h4.486
			c2.055,0,3.96-1.069,5.015-2.815L109.995,50L96.496,25.815z"/>
	</g>
	<g>
		<rect x="54.995" y="38" fill="#FFFFFF" width="4" height="24"/>
		<polygon fill="#FFFFFF" points="46.995,38 46.995,55.6 35.995,38 31.995,38 31.995,62 35.995,62 35.995,44.4 46.995,62 50.995,62 
			50.995,38 		"/>
		<polygon fill="#FFFFFF" points="77.995,38 77.995,48 66.995,48 66.995,38 62.995,38 62.995,62 66.995,62 66.995,52 77.995,52 
			77.995,62 81.995,62 81.995,38 		"/>
	</g>
</g>
<g>
	<g>
		<path fill="#BB0E3D" d="M130.849,23h2.495v11.184h-2.495l-5.328-7.008v7.008h-2.496V23h2.336l5.488,7.2V23z"/>
		<path fill="#BB0E3D" d="M144.064,34.184l-1.04-2.416h-4.688l-1.04,2.416h-2.656L139.472,23h2.416l4.832,11.184H144.064z
			 M140.688,26.327l-1.407,3.248h2.8L140.688,26.327z"/>
		<path fill="#BB0E3D" d="M151.936,25.159v9.025h-2.495v-9.025h-3.168V23h8.831v2.159H151.936z"/>
		<path fill="#BB0E3D" d="M156.928,23h2.496v11.184h-2.496V23z"/>
		<path fill="#BB0E3D" d="M171.584,32.64c-1.131,1.104-2.522,1.656-4.176,1.656s-3.046-0.553-4.176-1.656
			c-1.131-1.104-1.696-2.478-1.696-4.121c0-1.643,0.565-3.016,1.696-4.12c1.13-1.104,2.522-1.656,4.176-1.656
			s3.045,0.553,4.176,1.656c1.131,1.104,1.696,2.478,1.696,4.12C173.28,30.162,172.715,31.535,171.584,32.64z M170.736,28.527
			c0-0.997-0.32-1.848-0.96-2.552c-0.641-0.704-1.427-1.056-2.36-1.056s-1.72,0.352-2.36,1.056c-0.64,0.704-0.96,1.555-0.96,2.552
			c0,0.998,0.32,1.846,0.96,2.544c0.641,0.699,1.427,1.048,2.36,1.048s1.72-0.349,2.36-1.048
			C170.416,30.373,170.736,29.525,170.736,28.527z"/>
		<path fill="#BB0E3D" d="M183.216,23h2.496v11.184h-2.496l-5.328-7.008v7.008h-2.496V23h2.336l5.488,7.2V23z"/>
		<path fill="#BB0E3D" d="M196.432,34.184l-1.04-2.416h-4.688l-1.04,2.416h-2.656L191.84,23h2.416l4.832,11.184H196.432z
			 M193.056,26.327l-1.408,3.248h2.8L193.056,26.327z"/>
		<path fill="#BB0E3D" d="M200.384,34.184V23h2.496v8.96h4.768v2.224H200.384z"/>
		<path fill="#BB0E3D" d="M218.832,31.976c1.226,0,2.229-0.485,3.008-1.456l1.6,1.648c-1.27,1.429-2.766,2.144-4.488,2.144
			s-3.141-0.544-4.256-1.632c-1.114-1.088-1.672-2.461-1.672-4.121c0-1.658,0.568-3.042,1.704-4.152
			c1.136-1.108,2.525-1.664,4.168-1.664c1.835,0,3.37,0.699,4.608,2.097l-1.553,1.76c-0.789-0.981-1.771-1.472-2.943-1.472
			c-0.939,0-1.742,0.307-2.408,0.92c-0.667,0.613-1,1.439-1,2.479s0.314,1.875,0.944,2.504
			C217.173,31.661,217.936,31.976,218.832,31.976z"/>
		<path fill="#BB0E3D" d="M233.296,34.184l-1.04-2.416h-4.688l-1.04,2.416h-2.656L228.704,23h2.416l4.832,11.184H233.296z
			 M229.92,26.327l-1.408,3.248h2.8L229.92,26.327z"/>
		<path fill="#BB0E3D" d="M245.072,23h2.495v11.184h-2.495l-5.328-7.008v7.008h-2.496V23h2.336l5.488,7.2V23z"/>
		<path fill="#BB0E3D" d="M255.455,31.976c1.227,0,2.229-0.485,3.008-1.456l1.601,1.648c-1.27,1.429-2.766,2.144-4.488,2.144
			s-3.142-0.544-4.256-1.632c-1.115-1.088-1.672-2.461-1.672-4.121c0-1.658,0.567-3.042,1.704-4.152
			c1.136-1.108,2.524-1.664,4.168-1.664c1.834,0,3.37,0.699,4.607,2.097l-1.552,1.76c-0.79-0.981-1.771-1.472-2.944-1.472
			c-0.938,0-1.741,0.307-2.408,0.92c-0.666,0.613-1,1.439-1,2.479s0.315,1.875,0.944,2.504
			C253.796,31.661,254.56,31.976,255.455,31.976z"/>
		<path fill="#BB0E3D" d="M270.095,23v2.224h-5.567v2.304h5.008v2.128h-5.008v2.321h5.744v2.208h-8.24V23H270.095z"/>
		<path fill="#BB0E3D" d="M281.567,26.711c0,1.792-0.71,2.949-2.129,3.472l2.832,4h-3.071l-2.48-3.568h-1.728v3.568h-2.496V23h4.24
			c1.738,0,2.979,0.293,3.72,0.88S281.567,25.41,281.567,26.711z M278.559,28.04c0.31-0.277,0.464-0.718,0.464-1.32
			s-0.159-1.017-0.479-1.24s-0.88-0.336-1.68-0.336h-1.872v3.312h1.823C277.668,28.456,278.249,28.317,278.559,28.04z"/>
		<path fill="#BB0E3D" d="M288.352,23h2.496v11.184h-2.496V23z"/>
		<path fill="#BB0E3D" d="M301.424,23h2.495v11.184h-2.495l-5.328-7.008v7.008H293.6V23h2.336l5.488,7.2V23z"/>
		<path fill="#BB0E3D" d="M309.287,25.231c-0.24,0.197-0.36,0.459-0.36,0.784s0.146,0.584,0.439,0.776
			c0.294,0.191,0.971,0.418,2.032,0.68s1.886,0.653,2.473,1.176c0.586,0.522,0.88,1.285,0.88,2.289c0,1.003-0.376,1.816-1.128,2.44
			s-1.742,0.936-2.969,0.936c-1.771,0-3.365-0.656-4.783-1.968l1.487-1.824c1.205,1.056,2.32,1.584,3.345,1.584
			c0.458,0,0.818-0.099,1.079-0.296c0.262-0.197,0.393-0.464,0.393-0.8s-0.139-0.603-0.416-0.8s-0.827-0.398-1.648-0.601
			c-1.301-0.309-2.253-0.712-2.855-1.208s-0.904-1.274-0.904-2.336s0.381-1.88,1.145-2.456c0.762-0.576,1.714-0.864,2.855-0.864
			c0.747,0,1.493,0.129,2.24,0.385c0.746,0.256,1.397,0.618,1.952,1.088l-1.265,1.824c-0.971-0.736-1.973-1.104-3.008-1.104
			C309.854,24.935,309.526,25.034,309.287,25.231z"/>
		<path fill="#BB0E3D" d="M321.519,25.159v9.025h-2.496v-9.025h-3.168V23h8.832v2.159H321.519z"/>
		<path fill="#BB0E3D" d="M326.51,23h2.496v11.184h-2.496V23z"/>
		<path fill="#BB0E3D" d="M336.494,25.159v9.025h-2.496v-9.025h-3.168V23h8.832v2.159H336.494z"/>
		<path fill="#BB0E3D" d="M344.445,31.296c0.416,0.518,0.977,0.775,1.681,0.775s1.261-0.258,1.672-0.775
			c0.41-0.518,0.616-1.225,0.616-2.121V23h2.495v6.256c0,1.622-0.447,2.867-1.344,3.736c-0.896,0.87-2.043,1.305-3.439,1.305
			c-1.397,0-2.547-0.438-3.448-1.312c-0.901-0.874-1.353-2.117-1.353-3.728V23h2.496v6.176
			C343.821,30.071,344.029,30.778,344.445,31.296z"/>
		<path fill="#BB0E3D" d="M358.237,25.159v9.025h-2.496v-9.025h-3.168V23h8.832v2.159H358.237z"/>
		<path fill="#BB0E3D" d="M371.293,23v2.224h-5.568v2.304h5.008v2.128h-5.008v2.321h5.744v2.208h-8.24V23H371.293z"/>
	</g>
</g>
<g>
	<path fill="#606060" d="M129.155,53.445c1.533,0,2.787-0.606,3.761-1.82l2,2.061c-1.587,1.786-3.457,2.68-5.61,2.68
		s-3.927-0.68-5.32-2.04s-2.09-3.076-2.09-5.149s0.71-3.804,2.13-5.19s3.157-2.08,5.21-2.08c2.293,0,4.214,0.873,5.761,2.62
		l-1.94,2.2c-0.987-1.227-2.214-1.84-3.68-1.84c-1.174,0-2.177,0.383-3.011,1.149c-0.833,0.767-1.25,1.8-1.25,3.101
		c0,1.3,0.394,2.343,1.181,3.129C127.082,53.052,128.035,53.445,129.155,53.445z"/>
	<path fill="#606060" d="M140.075,50.405v5.8h-3v-14.84h3v5.28c0.906-0.92,1.923-1.38,3.05-1.38s2.077,0.399,2.851,1.199
		c0.772,0.801,1.16,1.867,1.16,3.2v6.54h-3v-5.88c0-1.653-0.607-2.479-1.82-2.479c-0.601,0-1.124,0.217-1.57,0.649
		C140.298,48.929,140.075,49.565,140.075,50.405z"/>
	<path fill="#606060" d="M150.105,44.075c-0.34-0.34-0.51-0.757-0.51-1.25s0.17-0.91,0.51-1.25s0.757-0.51,1.25-0.51
		s0.91,0.17,1.25,0.51s0.51,0.757,0.51,1.25s-0.17,0.91-0.51,1.25s-0.757,0.51-1.25,0.51S150.445,44.415,150.105,44.075z
		 M152.855,56.205h-3v-10.76h3V56.205z"/>
	<path fill="#606060" d="M158.695,56.205h-3v-14.84h3V56.205z"/>
	<path fill="#606060" d="M165.845,56.365c-1.273,0-2.41-0.54-3.41-1.62s-1.5-2.42-1.5-4.02c0-1.601,0.486-2.91,1.46-3.931
		c0.973-1.02,2.113-1.529,3.42-1.529s2.373,0.46,3.2,1.38v-5.28h3v14.84h-3v-1.42C168.174,55.839,167.118,56.365,165.845,56.365z
		 M163.955,50.846c0,0.866,0.26,1.576,0.78,2.129c0.52,0.554,1.126,0.83,1.82,0.83c0.692,0,1.282-0.276,1.77-0.83
		c0.486-0.553,0.73-1.267,0.73-2.14s-0.244-1.6-0.73-2.18c-0.487-0.58-1.083-0.87-1.79-0.87s-1.313,0.294-1.82,0.88
		C164.208,49.252,163.955,49.979,163.955,50.846z"/>
	<path fill="#606060" d="M177.854,50.405v5.8h-3v-14.84h3v5.28c0.906-0.92,1.923-1.38,3.05-1.38s2.077,0.399,2.851,1.199
		c0.772,0.801,1.16,1.867,1.16,3.2v6.54h-3v-5.88c0-1.653-0.607-2.479-1.82-2.479c-0.601,0-1.124,0.217-1.57,0.649
		C178.078,48.929,177.854,49.565,177.854,50.405z"/>
	<path fill="#606060" d="M198.394,50.825c0,1.56-0.54,2.873-1.62,3.939c-1.079,1.067-2.437,1.601-4.069,1.601
		c-1.634,0-2.99-0.533-4.07-1.601c-1.08-1.066-1.62-2.38-1.62-3.939s0.54-2.876,1.62-3.95c1.08-1.073,2.437-1.609,4.07-1.609
		c1.633,0,2.99,0.536,4.069,1.609C197.854,47.949,198.394,49.266,198.394,50.825z M190.035,50.825c0,0.88,0.25,1.597,0.75,2.149
		c0.5,0.554,1.14,0.83,1.92,0.83c0.779,0,1.42-0.276,1.92-0.83c0.5-0.553,0.75-1.27,0.75-2.149s-0.25-1.6-0.75-2.16
		c-0.5-0.56-1.141-0.84-1.92-0.84c-0.78,0-1.42,0.28-1.92,0.84C190.285,49.226,190.035,49.945,190.035,50.825z"/>
	<path fill="#606060" d="M211.374,50.825c0,1.56-0.54,2.873-1.62,3.939c-1.079,1.067-2.437,1.601-4.069,1.601
		c-1.634,0-2.99-0.533-4.07-1.601c-1.08-1.066-1.62-2.38-1.62-3.939s0.54-2.876,1.62-3.95c1.08-1.073,2.437-1.609,4.07-1.609
		c1.633,0,2.99,0.536,4.069,1.609C210.833,47.949,211.374,49.266,211.374,50.825z M203.014,50.825c0,0.88,0.25,1.597,0.75,2.149
		c0.5,0.554,1.14,0.83,1.92,0.83c0.779,0,1.42-0.276,1.92-0.83c0.5-0.553,0.75-1.27,0.75-2.149s-0.25-1.6-0.75-2.16
		c-0.5-0.56-1.141-0.84-1.92-0.84c-0.78,0-1.42,0.28-1.92,0.84C203.264,49.226,203.014,49.945,203.014,50.825z"/>
	<path fill="#606060" d="M217.904,56.365c-1.273,0-2.41-0.54-3.41-1.62s-1.5-2.42-1.5-4.02c0-1.601,0.486-2.91,1.46-3.931
		c0.973-1.02,2.113-1.529,3.42-1.529s2.373,0.46,3.2,1.38v-5.28h3v14.84h-3v-1.42C220.233,55.839,219.176,56.365,217.904,56.365z
		 M216.013,50.846c0,0.866,0.26,1.576,0.78,2.129c0.52,0.554,1.126,0.83,1.82,0.83c0.692,0,1.282-0.276,1.77-0.83
		c0.486-0.553,0.73-1.267,0.73-2.14s-0.244-1.6-0.73-2.18c-0.487-0.58-1.083-0.87-1.79-0.87s-1.313,0.294-1.82,0.88
		C216.266,49.252,216.013,49.979,216.013,50.846z"/>
	<path fill="#606060" d="M238.913,53.445c1.533,0,2.787-0.606,3.761-1.82l2,2.061c-1.587,1.786-3.457,2.68-5.61,2.68
		s-3.927-0.68-5.32-2.04s-2.09-3.076-2.09-5.149s0.71-3.804,2.13-5.19s3.157-2.08,5.21-2.08c2.293,0,4.214,0.873,5.761,2.62
		l-1.94,2.2c-0.987-1.227-2.214-1.84-3.68-1.84c-1.174,0-2.177,0.383-3.011,1.149c-0.833,0.767-1.25,1.8-1.25,3.101
		c0,1.3,0.394,2.343,1.181,3.129C236.839,53.052,237.792,53.445,238.913,53.445z"/>
	<path fill="#606060" d="M255.852,56.205h-2.819v-1.3c-0.773,0.974-1.73,1.46-2.87,1.46s-2.097-0.33-2.87-0.99s-1.16-1.54-1.16-2.64
		s0.4-1.923,1.2-2.47s1.894-0.82,3.28-0.82h2.239v-0.06c0-1.147-0.606-1.721-1.819-1.721c-0.521,0-1.07,0.104-1.65,0.311
		s-1.07,0.463-1.47,0.77l-1.34-1.939c1.413-1.027,3.026-1.54,4.84-1.54c1.307,0,2.373,0.326,3.2,0.979
		c0.826,0.653,1.239,1.688,1.239,3.101V56.205z M252.833,52.104v-0.52h-1.88c-1.2,0-1.8,0.373-1.8,1.12
		c0,0.387,0.143,0.684,0.43,0.89c0.286,0.207,0.696,0.311,1.229,0.311s1.004-0.163,1.41-0.49
		C252.629,53.089,252.833,52.652,252.833,52.104z"/>
	<path fill="#606060" d="M261.592,50.205v6h-3v-10.76h3v1.2c0.906-0.92,1.927-1.38,3.061-1.38c1.133,0,2.083,0.399,2.85,1.199
		c0.767,0.801,1.15,1.867,1.15,3.2v6.54h-3v-6.08c0-1.652-0.607-2.479-1.82-2.479c-0.601,0-1.124,0.217-1.57,0.649
		C261.816,48.729,261.592,49.365,261.592,50.205z"/>
	<path fill="#606060" d="M276.533,53.705c1,0,1.9-0.5,2.7-1.5l1.779,2c-1.387,1.44-2.887,2.16-4.5,2.16s-2.977-0.51-4.09-1.53
		c-1.113-1.02-1.67-2.353-1.67-4c0-1.646,0.563-2.986,1.69-4.02c1.126-1.033,2.463-1.55,4.01-1.55c0.773,0,1.557,0.16,2.35,0.479
		c0.794,0.32,1.49,0.794,2.091,1.42l-1.561,2.04c-0.347-0.413-0.77-0.732-1.27-0.96c-0.5-0.227-0.997-0.34-1.49-0.34
		c-0.787,0-1.464,0.257-2.03,0.771c-0.566,0.513-0.85,1.227-0.85,2.14s0.283,1.623,0.85,2.13S275.773,53.705,276.533,53.705z"/>
	<path fill="#606060" d="M292.333,54.646c-1.214,1.146-2.637,1.72-4.271,1.72c-1.633,0-2.983-0.503-4.05-1.51s-1.6-2.357-1.6-4.05
		c0-1.693,0.543-3.04,1.63-4.04c1.086-1,2.37-1.5,3.85-1.5c1.48,0,2.736,0.446,3.771,1.34c1.033,0.894,1.55,2.12,1.55,3.68v1.601
		h-7.84c0.093,0.586,0.399,1.066,0.92,1.439c0.52,0.373,1.106,0.56,1.76,0.56c1.053,0,1.92-0.353,2.6-1.06L292.333,54.646z
		 M289.453,48.266c-0.414-0.347-0.917-0.521-1.511-0.521c-0.593,0-1.137,0.181-1.63,0.54c-0.493,0.36-0.779,0.847-0.859,1.46h4.72
		C290.105,49.105,289.866,48.612,289.453,48.266z"/>
	<path fill="#606060" d="M301.033,48.085c-0.894,0-1.561,0.317-2,0.95c-0.44,0.634-0.66,1.47-0.66,2.51v4.66h-3v-10.76h3v1.42
		c0.387-0.439,0.87-0.813,1.45-1.12s1.17-0.467,1.77-0.479l0.021,2.819H301.033z"/>
	<path fill="#606060" d="M319.853,44.056c1.333,1.22,2,2.917,2,5.09s-0.65,3.893-1.95,5.159c-1.3,1.268-3.283,1.9-5.95,1.9h-4.78
		V42.226h4.94C316.606,42.226,318.519,42.835,319.853,44.056z M317.563,52.365c0.767-0.72,1.149-1.767,1.149-3.14
		s-0.383-2.431-1.149-3.17c-0.768-0.74-1.943-1.11-3.53-1.11h-1.74v8.5h1.98C315.699,53.445,316.795,53.085,317.563,52.365z"/>
	<path fill="#606060" d="M333.252,56.205h-2.819v-1.3c-0.773,0.974-1.73,1.46-2.87,1.46s-2.097-0.33-2.87-0.99s-1.16-1.54-1.16-2.64
		s0.4-1.923,1.2-2.47s1.894-0.82,3.28-0.82h2.239v-0.06c0-1.147-0.606-1.721-1.819-1.721c-0.521,0-1.07,0.104-1.65,0.311
		s-1.07,0.463-1.47,0.77l-1.34-1.939c1.413-1.027,3.026-1.54,4.84-1.54c1.307,0,2.373,0.326,3.2,0.979
		c0.826,0.653,1.239,1.688,1.239,3.101V56.205z M330.233,52.104v-0.52h-1.88c-1.2,0-1.8,0.373-1.8,1.12
		c0,0.387,0.143,0.684,0.43,0.89c0.286,0.207,0.696,0.311,1.229,0.311s1.004-0.163,1.41-0.49
		C330.03,53.089,330.233,52.652,330.233,52.104z"/>
	<path fill="#606060" d="M339.453,47.605v4.819c0,0.414,0.106,0.737,0.32,0.971c0.213,0.233,0.466,0.35,0.76,0.35
		c0.56,0,1.033-0.253,1.42-0.76l1.12,2.1c-0.934,0.854-1.917,1.28-2.95,1.28s-1.907-0.34-2.62-1.021
		c-0.713-0.68-1.069-1.606-1.069-2.779v-4.96h-1.261v-2.16h1.261v-3.22h3.02v3.22h2.6v2.16H339.453z"/>
	<path fill="#606060" d="M353.812,56.205h-2.819v-1.3c-0.773,0.974-1.73,1.46-2.87,1.46s-2.097-0.33-2.87-0.99s-1.16-1.54-1.16-2.64
		s0.4-1.923,1.2-2.47s1.894-0.82,3.28-0.82h2.239v-0.06c0-1.147-0.606-1.721-1.819-1.721c-0.521,0-1.07,0.104-1.65,0.311
		s-1.07,0.463-1.47,0.77l-1.34-1.939c1.413-1.027,3.026-1.54,4.84-1.54c1.307,0,2.373,0.326,3.2,0.979
		c0.826,0.653,1.239,1.688,1.239,3.101V56.205z M350.792,52.104v-0.52h-1.88c-1.2,0-1.8,0.373-1.8,1.12
		c0,0.387,0.143,0.684,0.43,0.89c0.286,0.207,0.696,0.311,1.229,0.311s1.004-0.163,1.41-0.49
		C350.589,53.089,350.792,52.652,350.792,52.104z"/>
	<path fill="#606060" d="M362.132,42.226h3.12v13.979h-3.12V42.226z"/>
	<path fill="#606060" d="M371.292,50.205v6h-3v-10.76h3v1.2c0.906-0.92,1.927-1.38,3.061-1.38c1.133,0,2.083,0.399,2.85,1.199
		c0.767,0.801,1.15,1.867,1.15,3.2v6.54h-3v-6.08c0-1.652-0.607-2.479-1.82-2.479c-0.601,0-1.124,0.217-1.57,0.649
		C371.516,48.729,371.292,49.365,371.292,50.205z"/>
	<path fill="#606060" d="M381.323,44.075c-0.34-0.34-0.51-0.757-0.51-1.25s0.17-0.91,0.51-1.25s0.757-0.51,1.25-0.51
		s0.91,0.17,1.25,0.51s0.51,0.757,0.51,1.25s-0.17,0.91-0.51,1.25s-0.757,0.51-1.25,0.51S381.663,44.415,381.323,44.075z
		 M384.073,56.205h-3v-10.76h3V56.205z"/>
	<path fill="#606060" d="M390.493,47.605v4.819c0,0.414,0.106,0.737,0.32,0.971c0.213,0.233,0.466,0.35,0.76,0.35
		c0.56,0,1.033-0.253,1.42-0.76l1.12,2.1c-0.934,0.854-1.917,1.28-2.95,1.28s-1.907-0.34-2.62-1.021
		c-0.713-0.68-1.069-1.606-1.069-2.779v-4.96h-1.261v-2.16h1.261v-3.22h3.02v3.22h2.6v2.16H390.493z"/>
	<path fill="#606060" d="M395.962,44.075c-0.34-0.34-0.51-0.757-0.51-1.25s0.17-0.91,0.51-1.25s0.757-0.51,1.25-0.51
		s0.91,0.17,1.25,0.51s0.51,0.757,0.51,1.25s-0.17,0.91-0.51,1.25s-0.757,0.51-1.25,0.51S396.302,44.415,395.962,44.075z
		 M398.712,56.205h-3v-10.76h3V56.205z"/>
	<path fill="#606060" d="M410.692,56.205h-2.819v-1.3c-0.773,0.974-1.73,1.46-2.87,1.46s-2.097-0.33-2.87-0.99s-1.16-1.54-1.16-2.64
		s0.4-1.923,1.2-2.47s1.894-0.82,3.28-0.82h2.239v-0.06c0-1.147-0.606-1.721-1.819-1.721c-0.521,0-1.07,0.104-1.65,0.311
		s-1.07,0.463-1.47,0.77l-1.34-1.939c1.413-1.027,3.026-1.54,4.84-1.54c1.307,0,2.373,0.326,3.2,0.979
		c0.826,0.653,1.239,1.688,1.239,3.101V56.205z M407.672,52.104v-0.52h-1.88c-1.2,0-1.8,0.373-1.8,1.12
		c0,0.387,0.143,0.684,0.43,0.89c0.286,0.207,0.696,0.311,1.229,0.311s1.004-0.163,1.41-0.49
		C407.469,53.089,407.672,52.652,407.672,52.104z"/>
	<path fill="#606060" d="M416.892,47.605v4.819c0,0.414,0.106,0.737,0.32,0.971c0.213,0.233,0.466,0.35,0.76,0.35
		c0.56,0,1.033-0.253,1.42-0.76l1.12,2.1c-0.934,0.854-1.917,1.28-2.95,1.28s-1.907-0.34-2.62-1.021
		c-0.713-0.68-1.069-1.606-1.069-2.779v-4.96h-1.261v-2.16h1.261v-3.22h3.02v3.22h2.6v2.16H416.892z"/>
	<path fill="#606060" d="M422.362,44.075c-0.34-0.34-0.51-0.757-0.51-1.25s0.17-0.91,0.51-1.25s0.757-0.51,1.25-0.51
		s0.91,0.17,1.25,0.51s0.51,0.757,0.51,1.25s-0.17,0.91-0.51,1.25s-0.757,0.51-1.25,0.51S422.702,44.415,422.362,44.075z
		 M425.112,56.205h-3v-10.76h3V56.205z"/>
	<path fill="#606060" d="M430.852,56.205l-4.261-10.779h3.12l2.681,6.779l2.68-6.779h3.12l-4.26,10.779H430.852z"/>
	<path fill="#606060" d="M448.992,54.646c-1.214,1.146-2.637,1.72-4.271,1.72c-1.633,0-2.983-0.503-4.05-1.51s-1.6-2.357-1.6-4.05
		c0-1.693,0.543-3.04,1.63-4.04c1.086-1,2.37-1.5,3.85-1.5c1.48,0,2.736,0.446,3.771,1.34c1.033,0.894,1.55,2.12,1.55,3.68v1.601
		h-7.84c0.093,0.586,0.399,1.066,0.92,1.439c0.52,0.373,1.106,0.56,1.76,0.56c1.053,0,1.92-0.353,2.6-1.06L448.992,54.646z
		 M446.112,48.266c-0.414-0.347-0.917-0.521-1.511-0.521c-0.593,0-1.137,0.181-1.63,0.54c-0.493,0.36-0.779,0.847-0.859,1.46h4.72
		C446.764,49.105,446.525,48.612,446.112,48.266z"/>
	<path fill="#606060" d="M135.255,68.405l-3.78,7.64h-1.86l-3.76-7.64v8.8h-3.12v-13.98h4.221l3.6,7.681l3.62-7.681h4.2v13.98h-3.12
		V68.405z"/>
	<path fill="#606060" d="M152.275,71.825c0,1.56-0.54,2.873-1.62,3.939c-1.079,1.067-2.437,1.601-4.069,1.601
		c-1.634,0-2.99-0.533-4.07-1.601c-1.08-1.066-1.62-2.38-1.62-3.939c0-1.561,0.54-2.877,1.62-3.95s2.437-1.61,4.07-1.61
		c1.633,0,2.99,0.537,4.069,1.61C151.735,68.948,152.275,70.265,152.275,71.825z M143.916,71.825c0,0.88,0.25,1.597,0.75,2.149
		c0.5,0.554,1.14,0.83,1.92,0.83c0.779,0,1.42-0.276,1.92-0.83c0.5-0.553,0.75-1.27,0.75-2.149s-0.25-1.601-0.75-2.16
		s-1.141-0.84-1.92-0.84c-0.78,0-1.42,0.28-1.92,0.84S143.916,70.945,143.916,71.825z"/>
	<path fill="#606060" d="M157.495,77.205h-3v-14.84h3V77.205z"/>
	<path fill="#606060" d="M169.655,75.646c-1.214,1.146-2.637,1.72-4.271,1.72c-1.633,0-2.983-0.503-4.05-1.51s-1.6-2.357-1.6-4.051
		c0-1.692,0.543-3.04,1.63-4.04c1.086-1,2.37-1.5,3.85-1.5c1.48,0,2.736,0.447,3.771,1.341c1.033,0.893,1.55,2.119,1.55,3.68v1.6
		h-7.84c0.093,0.587,0.399,1.067,0.92,1.44c0.52,0.373,1.106,0.56,1.76,0.56c1.053,0,1.92-0.353,2.6-1.06L169.655,75.646z
		 M166.775,69.265c-0.414-0.346-0.917-0.52-1.511-0.52c-0.593,0-1.137,0.18-1.63,0.54s-0.779,0.847-0.859,1.46h4.72
		C167.427,70.105,167.188,69.612,166.775,69.265z"/>
	<path fill="#606060" d="M177.855,74.705c1,0,1.9-0.5,2.7-1.5l1.779,2c-1.387,1.44-2.887,2.16-4.5,2.16s-2.977-0.51-4.09-1.53
		c-1.113-1.02-1.67-2.353-1.67-4c0-1.646,0.563-2.986,1.69-4.02c1.126-1.033,2.463-1.551,4.01-1.551c0.773,0,1.557,0.16,2.35,0.48
		c0.794,0.32,1.49,0.793,2.091,1.42l-1.561,2.04c-0.347-0.413-0.77-0.733-1.27-0.96s-0.997-0.34-1.49-0.34
		c-0.787,0-1.464,0.257-2.03,0.77c-0.566,0.514-0.85,1.228-0.85,2.141s0.283,1.623,0.85,2.13S177.095,74.705,177.855,74.705z"/>
	<path fill="#606060" d="M191.275,72.245v-5.8h3.02v10.76h-3.02v-1.42c-0.747,1.054-1.71,1.58-2.891,1.58
		c-1.18,0-2.17-0.37-2.97-1.11s-1.2-1.836-1.2-3.29v-6.52h3.021v5.859c0,1.654,0.606,2.48,1.819,2.48c0.601,0,1.12-0.217,1.561-0.65
		C191.054,73.702,191.275,73.072,191.275,72.245z"/>
	<path fill="#606060" d="M200.134,77.205h-3v-14.84h3V77.205z"/>
	<path fill="#606060" d="M212.114,77.205h-2.819v-1.3c-0.773,0.974-1.73,1.46-2.87,1.46s-2.097-0.33-2.87-0.99s-1.16-1.54-1.16-2.64
		c0-1.101,0.4-1.924,1.2-2.471c0.8-0.546,1.894-0.819,3.28-0.819h2.239v-0.061c0-1.146-0.606-1.72-1.819-1.72
		c-0.521,0-1.07,0.104-1.65,0.31c-0.58,0.207-1.07,0.464-1.47,0.771l-1.34-1.94c1.413-1.026,3.026-1.54,4.84-1.54
		c1.307,0,2.373,0.327,3.2,0.98c0.826,0.653,1.239,1.687,1.239,3.1V77.205z M209.094,73.105v-0.521h-1.88c-1.2,0-1.8,0.374-1.8,1.12
		c0,0.387,0.143,0.684,0.43,0.89c0.286,0.207,0.696,0.311,1.229,0.311s1.004-0.163,1.41-0.49
		C208.891,74.089,209.094,73.652,209.094,73.105z"/>
	<path fill="#606060" d="M220.514,69.085c-0.894,0-1.561,0.317-2,0.95c-0.44,0.634-0.66,1.47-0.66,2.51v4.66h-3v-10.76h3v1.42
		c0.387-0.44,0.87-0.813,1.45-1.12s1.17-0.467,1.77-0.48l0.021,2.82H220.514z"/>
	<path fill="#606060" d="M234.574,65.925v11.28h-3.12v-11.28h-3.96v-2.7h11.04v2.7H234.574z"/>
	<path fill="#606060" d="M248.374,77.205h-2.819v-1.3c-0.773,0.974-1.73,1.46-2.87,1.46s-2.097-0.33-2.87-0.99s-1.16-1.54-1.16-2.64
		c0-1.101,0.4-1.924,1.2-2.471c0.8-0.546,1.894-0.819,3.28-0.819h2.239v-0.061c0-1.146-0.606-1.72-1.819-1.72
		c-0.521,0-1.07,0.104-1.65,0.31c-0.58,0.207-1.07,0.464-1.47,0.771l-1.34-1.94c1.413-1.026,3.026-1.54,4.84-1.54
		c1.307,0,2.373,0.327,3.2,0.98c0.826,0.653,1.239,1.687,1.239,3.1V77.205z M245.354,73.105v-0.521h-1.88c-1.2,0-1.8,0.374-1.8,1.12
		c0,0.387,0.143,0.684,0.43,0.89c0.286,0.207,0.696,0.311,1.229,0.311s1.004-0.163,1.41-0.49
		C245.151,74.089,245.354,73.652,245.354,73.105z"/>
	<path fill="#606060" d="M256.774,69.085c-0.894,0-1.561,0.317-2,0.95c-0.44,0.634-0.66,1.47-0.66,2.51v4.66h-3v-10.76h3v1.42
		c0.387-0.44,0.87-0.813,1.45-1.12s1.17-0.467,1.77-0.48l0.021,2.82H256.774z"/>
	<path fill="#606060" d="M267.293,75.385c-0.946,1.054-2.123,1.58-3.53,1.58c-1.406,0-2.593-0.477-3.56-1.43s-1.45-2.227-1.45-3.82
		c0-1.593,0.497-2.899,1.49-3.92c0.993-1.02,2.13-1.53,3.41-1.53c1.279,0,2.34,0.527,3.18,1.58v-1.42h3v9.38
		c0,0.96-0.167,1.813-0.5,2.561c-0.333,0.746-0.78,1.333-1.34,1.76c-1.107,0.88-2.413,1.32-3.92,1.32c-0.8,0-1.617-0.13-2.45-0.391
		c-0.833-0.26-1.563-0.63-2.19-1.109l1.16-2.26c0.987,0.746,2.03,1.119,3.13,1.119c1.101,0,1.971-0.273,2.61-0.819
		C266.973,77.438,267.293,76.572,267.293,75.385z M266.874,71.595c0-0.859-0.24-1.536-0.72-2.029c-0.48-0.493-1.073-0.74-1.78-0.74
		s-1.316,0.247-1.83,0.74s-0.77,1.167-0.77,2.02c0,0.854,0.25,1.544,0.75,2.07s1.109,0.79,1.83,0.79c0.72,0,1.319-0.26,1.8-0.78
		C266.633,73.146,266.874,72.455,266.874,71.595z"/>
	<path fill="#606060" d="M281.994,75.646c-1.214,1.146-2.637,1.72-4.271,1.72c-1.633,0-2.983-0.503-4.05-1.51s-1.6-2.357-1.6-4.051
		c0-1.692,0.543-3.04,1.63-4.04c1.086-1,2.37-1.5,3.85-1.5c1.48,0,2.736,0.447,3.771,1.341c1.033,0.893,1.55,2.119,1.55,3.68v1.6
		h-7.84c0.093,0.587,0.399,1.067,0.92,1.44c0.52,0.373,1.106,0.56,1.76,0.56c1.053,0,1.92-0.353,2.6-1.06L281.994,75.646z
		 M279.114,69.265c-0.414-0.346-0.917-0.52-1.511-0.52c-0.593,0-1.137,0.18-1.63,0.54s-0.779,0.847-0.859,1.46h4.72
		C279.766,70.105,279.527,69.612,279.114,69.265z"/>
	<path fill="#606060" d="M288.495,68.605v4.819c0,0.414,0.106,0.737,0.32,0.971c0.213,0.233,0.466,0.35,0.76,0.35
		c0.56,0,1.033-0.253,1.42-0.76l1.12,2.1c-0.934,0.854-1.917,1.28-2.95,1.28s-1.907-0.34-2.62-1.021
		c-0.713-0.68-1.069-1.606-1.069-2.779v-4.96h-1.261v-2.16h1.261v-3.221h3.02v3.221h2.6v2.16H288.495z"/>
	<path fill="#606060" d="M301.814,73.855c0,1.06-0.39,1.909-1.17,2.55c-0.779,0.64-1.77,0.96-2.97,0.96c-0.8,0-1.634-0.144-2.5-0.43
		c-0.867-0.287-1.646-0.711-2.34-1.271l1.32-1.88c1.12,0.867,2.312,1.3,3.58,1.3c0.386,0,0.692-0.076,0.92-0.229
		c0.227-0.153,0.34-0.357,0.34-0.61s-0.157-0.486-0.47-0.7c-0.313-0.213-0.768-0.413-1.36-0.6c-0.594-0.187-1.047-0.347-1.36-0.48
		c-0.313-0.133-0.67-0.326-1.069-0.58c-0.813-0.506-1.221-1.256-1.221-2.25c0-0.993,0.4-1.803,1.2-2.43s1.833-0.94,3.1-0.94
		s2.533,0.428,3.801,1.28l-1.12,2c-0.934-0.64-1.863-0.96-2.79-0.96s-1.391,0.254-1.391,0.76c0,0.28,0.147,0.5,0.44,0.66
		s0.78,0.347,1.46,0.561c0.68,0.213,1.163,0.377,1.45,0.489c0.286,0.114,0.63,0.29,1.03,0.53
		C301.441,72.038,301.814,72.795,301.814,73.855z"/>
</g>
<rect x="563.549" y="50" fill="#EC008C" width="22.995" height="22.995"/>
</svg>
