<?xml version="1.0" encoding="utf-8"?>
<!-- Generator: Adobe Illustrator 26.0.0, SVG Export Plug-In . SVG Version: 6.00 Build 0)  -->
<svg version="1.1" id="Layer_1" xmlns="http://www.w3.org/2000/svg" xmlns:xlink="http://www.w3.org/1999/xlink" x="0px" y="0px"
	 viewBox="0 0 27 27" style="enable-background:new 0 0 27 27;" xml:space="preserve">
<style type="text/css">
	.st0{fill-rule:evenodd;clip-rule:evenodd;fill:#FFFFFF;}
</style>
<path class="st0" d="M13.5,0.1c11.1,0,17.2,12.7,10.8,21.4c-4.9,6.6-14.6,7.3-20.4,1.4C-4.2,14.5,1.6,0.1,13.5,0.1L13.5,0.1z
	 M10.9,12L8.5,22.1l7.6-7.2l2.4-10.2L10.9,12z M14.1,12.4c0.9,0.5,0.7,1.9-0.3,2.2c-0.6,0.2-1.3-0.2-1.5-0.8
	C12,12.8,13.2,11.9,14.1,12.4L14.1,12.4z M13.5,2.5c9.1,0,14.1,10.4,8.8,17.5c-4,5.4-12,5.9-16.6,1.1C-1,14.3,3.7,2.5,13.5,2.5
	L13.5,2.5z"/>
</svg>
